<?xml version="1.0" encoding="iso-8859-1"?>
<!-- Generator: Adobe Illustrator 19.0.0, SVG Export Plug-In . SVG Version: 6.00 Build 0)  -->
<svg version="1.1" id="Layer_1" xmlns="http://www.w3.org/2000/svg" xmlns:xlink="http://www.w3.org/1999/xlink" x="0px" y="0px"
	 viewBox="0 0 512 512" style="enable-background:new 0 0 512 512;" xml:space="preserve">
<circle style="fill:#273B7A;" cx="256" cy="256" r="256"/>
<path style="fill:#121149;" d="M500.202,333.019L362.863,195.681l-10.98,15.455l-87.281-87.281l-7.582,169.943l-19.984-19.984
	l-45.558,47.095l-29.793-29.793l-24.136,5.344l-4.298-4.298l-35.35-1.045l214.611,214.611
	C401.575,485.659,473.053,419.176,500.202,333.019z"/>
<polygon style="fill:#FFEDB5;" points="287.965,263.728 303.947,390.23 208.053,390.23 224.035,263.728 "/>
<polygon style="fill:#FEE187;" points="287.965,263.728 255.426,263.728 255.426,390.23 303.947,390.23 "/>
<path style="fill:#FFC61B;" d="M129.795,323.01c0-30.88-31.892-31.892-31.892-31.892c30.88,0,31.892-31.892,31.892-31.892
	c0,30.88,31.892,31.892,31.892,31.892C130.807,291.118,129.795,323.01,129.795,323.01z"/>
<path style="fill:#EAA22F;" d="M129.795,259.225c0,30.88,31.892,31.892,31.892,31.892c-30.88,0-31.892,31.892-31.892,31.892V259.225
	z"/>
<path style="fill:#FFC61B;" d="M398.222,295.621c0-30.88-31.892-31.892-31.892-31.892c30.88,0,31.892-31.892,31.892-31.892
	c0,30.88,31.892,31.892,31.892,31.892C399.234,263.728,398.222,295.621,398.222,295.621z"/>
<path style="fill:#E09112;" d="M398.222,231.836c0,30.88,31.892,31.892,31.892,31.892c-30.88,0-31.892,31.892-31.892,31.892V231.836
	z"/>
<path style="fill:#FFC61B;" d="M268.359,128.352l24.712,46.399c2.024,3.798,5.68,6.456,9.918,7.206l51.765,9.164
	c11.038,1.955,15.42,15.439,7.639,23.509l-36.492,37.84c-2.988,3.098-4.384,7.397-3.789,11.66l7.28,52.065
	c1.553,11.102-9.919,19.437-19.997,14.529L262.13,307.71c-3.87-1.884-8.39-1.884-12.26,0l-47.264,23.014
	c-10.078,4.908-21.551-3.427-19.997-14.529l7.28-52.065c0.596-4.262-0.802-8.563-3.789-11.661l-36.492-37.84
	c-7.782-8.07-3.4-21.556,7.639-23.509l51.765-9.164c4.237-0.75,7.895-3.408,9.918-7.206l24.712-46.399
	C248.91,118.458,263.09,118.458,268.359,128.352z"/>
<path style="fill:#E09112;" d="M362.393,214.631c7.782-8.068,3.4-21.554-7.639-23.509l-51.765-9.164
	c-4.237-0.75-7.895-3.408-9.918-7.206l-24.71-46.399c-2.739-5.142-7.883-7.587-12.933-7.383v185.361
	c2.288-0.093,4.592,0.353,6.704,1.381l47.264,23.014c10.078,4.908,21.551-3.427,19.997-14.529l-7.28-52.065
	c-0.596-4.262,0.802-8.563,3.789-11.661L362.393,214.631z"/>
<g>
</g>
<g>
</g>
<g>
</g>
<g>
</g>
<g>
</g>
<g>
</g>
<g>
</g>
<g>
</g>
<g>
</g>
<g>
</g>
<g>
</g>
<g>
</g>
<g>
</g>
<g>
</g>
<g>
</g>
</svg>
